# xmcd
#
# Track frame offsets: 
#        150
#        9757
#        19237
#        29622
#        39942
#        48875
#        58462
#        68777
#        79165
#        88847
#        98485
#        108057
#        115562
#        130712
#        141707
#        149090
#        160335
#        187247
#        211267
#        221360
#        232520
#        244227
#        256475
#        262532
#        274205
#
# Disc length: 4013 seconds
#
# Revision: 1
# Processed by: cddbd v1.5.2PL0 Copyright (c) Steve Scherf et al.
# Submitted via: ExactAudioCopyFreeDBPlugin 1.0
#
DISCID=5c0fab19
DTITLE=Diverse - Bonanza
DYEAR=2007
DGENRE=Country
TTITLE0=Greene, Lorne - Bonanza
TTITLE1=Morrow, Buddy - Bonanza
TTITLE2=Cash, Johnny - Bonanza
TTITLE3=Al Caiola Orchestra - Bonanza
TTITLE4=Young, Faron - Bonanza
TTITLE5=Landon, Michael - Gimme A little Kiss (Will "Ya" Huh)
TTITLE6=Landon, Michael - Be Patient With Me
TTITLE7=Landon, Michael - Fight, Fight
TTITLE8=Landon, Michael - Linda Is Lonesome
TTITLE9=Landon, Michael - Without You
TTITLE10=Landon, Michael - Linda Is Lonesome (2)
TTITLE11=David Rose Orchestra - Bonanza
TTITLE12=David Rose Orchestra - Ponderosa
TTITLE13=David Rose Orchestra - Hoss
TTITLE14=David Rose Orchestra - Hoedown At Virginia City
TTITLE15=Cash, Johnny and Greene, Lorne - The Shifting Whispering Sands
TTITLE16=Greene, Lorne - Saga of the Ponderosa
TTITLE17=Vater Cartwright - ...erzählt von der Ponderosa
TTITLE18=Paulsen, Ralf - Bonanza
TTITLE19=Ralph - Wir warten jeden Sonntag auf Bonanza
TTITLE20=Paulsen, Ralf - Die Cowboys von der Ponderosa
TTITLE21=Bonanza Trio - Little Joe
TTITLE22=Nordwinds - Bonanza
TTITLE23=Heino - Zu der Ponderosa reiten wir
TTITLE24=Gabriel, Gunter - Die Sage der Ponderosa
EXTD=
EXTT0=
EXTT1=
EXTT2=
EXTT3=
EXTT4=
EXTT5=
EXTT6=
EXTT7=
EXTT8=
EXTT9=
EXTT10=
EXTT11=
EXTT12=
EXTT13=
EXTT14=
EXTT15=
EXTT16=
EXTT17=
EXTT18=
EXTT19=
EXTT20=
EXTT21=
EXTT22=
EXTT23=
EXTT24=
PLAYORDER=
